<?xml version="1.0" encoding="utf-8"?>
<!-- Generator: Adobe Illustrator 16.0.0, SVG Export Plug-In . SVG Version: 6.00 Build 0)  -->
<!DOCTYPE svg PUBLIC "-//W3C//DTD SVG 1.1//EN" "http://www.w3.org/Graphics/SVG/1.1/DTD/svg11.dtd">
<svg version="1.1" id="Layer_1" xmlns="http://www.w3.org/2000/svg" xmlns:xlink="http://www.w3.org/1999/xlink" x="0px" y="0px"
	 width="478px" height="305px" viewBox="0 0 478 305" enable-background="new 0 0 478 305" xml:space="preserve">
<g>
	<defs>
		<rect id="SVGID_1_" x="-356" y="-231.89" width="1190.55" height="841.89"/>
	</defs>
	<clipPath id="SVGID_2_">
		<use xlink:href="#SVGID_1_"  overflow="visible"/>
	</clipPath>
	<path clip-path="url(#SVGID_2_)" fill="#FF4D00" d="M239.275,6.407c-91.306,0-165.322,74.017-165.322,165.321
		c0,15.928,2.259,31.328,6.463,45.901h131.308h3.646c1.268,0,2.296-1.027,2.296-2.296c0-0.944-0.572-1.755-1.388-2.106l0.001-0.003
		l0.024-0.006c-24.188-9.252-41.372-32.666-41.372-60.106c0-35.536,28.807-64.345,64.345-64.345
		c35.536,0,64.346,28.809,64.346,64.345c0,27.439-17.184,50.852-41.369,60.104l0.033,0.008v0.003
		c-0.816,0.352-1.388,1.162-1.388,2.106c0,1.269,1.027,2.296,2.296,2.296h3.646h131.294c4.203-14.573,6.463-29.974,6.463-45.901
		C404.597,80.424,330.579,6.407,239.275,6.407"/>
	<path clip-path="url(#SVGID_2_)" fill="#FF4D00" d="M97.809,245.31h16.876v32.609c0,3.234-0.504,6.287-1.512,9.16
		c-1.008,2.873-2.589,5.386-4.742,7.537s-4.412,3.662-6.776,4.532c-3.286,1.219-7.231,1.829-11.836,1.829
		c-2.663,0-5.569-0.188-8.718-0.561c-3.149-0.374-5.781-1.112-7.896-2.22c-2.116-1.106-4.051-2.68-5.806-4.72
		c-1.755-2.039-2.956-4.142-3.603-6.305c-1.045-3.482-1.568-6.567-1.568-9.254V245.31h16.876v33.386
		c0,2.985,0.827,5.317,2.483,6.995c1.655,1.679,3.951,2.518,6.888,2.518c2.912,0,5.196-0.826,6.851-2.48
		c1.655-1.653,2.483-3.998,2.483-7.032V245.31z"/>
	<polygon clip-path="url(#SVGID_2_)" fill="#FF4D00" points="124.359,245.31 140.152,245.31 160.761,275.592 160.761,245.31 
		176.704,245.31 176.704,300.043 160.761,300.043 140.264,269.99 140.264,300.043 124.359,300.043 	"/>
	<polygon clip-path="url(#SVGID_2_)" fill="#FF4D00" points="235.413,245.31 251.478,245.31 257.261,275.951 265.726,245.31 
		281.732,245.31 290.218,275.91 296.008,245.31 311.989,245.31 299.923,300.043 283.338,300.043 273.738,265.582 264.175,300.043 
		247.59,300.043 	"/>
	<polygon clip-path="url(#SVGID_2_)" fill="#FF4D00" points="318.713,245.31 364.878,245.31 364.878,256.995 335.663,256.995 
		335.663,265.694 361.878,265.694 361.878,276.858 335.663,276.858 335.663,287.648 364.859,287.648 364.859,300.043 
		318.713,300.043 	"/>
	<polygon clip-path="url(#SVGID_2_)" fill="#FF4D00" points="422.815,245.31 474.228,245.31 474.228,258.825 456.978,258.825 
		456.978,300.043 440.064,300.043 440.064,258.825 422.815,258.825 	"/>
	<polygon clip-path="url(#SVGID_2_)" fill="#FF4D00" points="371.168,245.31 417.332,245.31 417.332,256.995 388.119,256.995 
		388.119,265.694 414.332,265.694 414.332,276.858 388.119,276.858 388.119,287.648 417.315,287.648 417.315,300.043 
		371.168,300.043 	"/>
	<path clip-path="url(#SVGID_2_)" fill="#FF4D00" d="M51.796,274.133c-1.456-2.414-3.784-4.438-6.982-6.067
		c-3.199-1.63-8.494-3.242-15.886-4.835c-2.987-0.622-4.879-1.294-5.675-2.016c-0.822-0.697-1.232-1.481-1.232-2.354
		c0-1.193,0.497-2.208,1.493-3.042c0.995-0.834,2.476-1.251,4.443-1.251c2.389,0,4.262,0.561,5.619,1.681
		c1.172,0.969,1.995,2.441,2.47,4.415h16.137c-0.701-5.661-2.883-9.789-6.548-12.387c-3.671-2.601-9.004-3.901-15.998-3.901
		c-5.7,0-10.187,0.716-13.46,2.146c-3.273,1.433-5.725,3.398-7.355,5.899c-1.63,2.502-2.445,5.159-2.445,7.971
		c0,4.282,1.592,7.803,4.779,10.567c3.161,2.762,8.45,4.978,15.868,6.645c4.529,0.996,7.417,2.054,8.662,3.174
		c1.244,1.12,1.866,2.39,1.866,3.809c0,1.493-0.653,2.807-1.96,3.938c-1.307,1.133-3.168,1.699-5.582,1.699
		c-3.235,0-5.725-1.108-7.467-3.323c-0.934-1.194-1.593-2.863-1.977-5.008H4.994l-0.671,0.042
		c0.473,5.526,2.502,10.081,6.086,13.665s10.031,5.377,19.34,5.377c5.302,0,9.694-0.766,13.18-2.297
		c3.484-1.53,6.198-3.777,8.139-6.739c1.941-2.961,2.912-6.198,2.912-9.707C53.979,279.248,53.251,276.548,51.796,274.133"/>
	<path clip-path="url(#SVGID_2_)" fill="#FF4D00" d="M231.119,274.133c-1.456-2.414-3.784-4.438-6.982-6.067
		c-3.199-1.63-8.494-3.242-15.886-4.835c-2.987-0.622-4.879-1.294-5.675-2.016c-0.822-0.697-1.232-1.481-1.232-2.354
		c0-1.193,0.497-2.208,1.493-3.042c0.995-0.834,2.476-1.251,4.443-1.251c2.389,0,4.262,0.561,5.619,1.681
		c1.172,0.969,1.995,2.441,2.47,4.415h16.137c-0.701-5.661-2.883-9.789-6.548-12.387c-3.671-2.601-9.004-3.901-15.998-3.901
		c-5.7,0-10.187,0.716-13.46,2.146c-3.273,1.433-5.725,3.398-7.355,5.899c-1.63,2.502-2.445,5.159-2.445,7.971
		c0,4.282,1.592,7.803,4.779,10.567c3.161,2.762,8.45,4.978,15.868,6.645c4.529,0.996,7.417,2.054,8.662,3.174
		c1.244,1.12,1.866,2.39,1.866,3.809c0,1.493-0.653,2.807-1.96,3.938c-1.307,1.133-3.168,1.699-5.582,1.699
		c-3.235,0-5.725-1.108-7.467-3.323c-0.934-1.194-1.593-2.863-1.977-5.008h-15.572l-0.671,0.042
		c0.473,5.526,2.502,10.081,6.086,13.665s10.031,5.377,19.34,5.377c5.302,0,9.694-0.766,13.18-2.297
		c3.484-1.53,6.198-3.777,8.139-6.739c1.941-2.961,2.912-6.198,2.912-9.707C233.303,279.248,232.575,276.548,231.119,274.133"/>
</g>
</svg>
