<?xml version="1.0" encoding="utf-8"?>
<!-- Generator: Adobe Illustrator 16.0.0, SVG Export Plug-In . SVG Version: 6.00 Build 0)  -->
<!DOCTYPE svg PUBLIC "-//W3C//DTD SVG 1.1//EN" "http://www.w3.org/Graphics/SVG/1.1/DTD/svg11.dtd">
<svg version="1.1" id="Layer_1" xmlns="http://www.w3.org/2000/svg" xmlns:xlink="http://www.w3.org/1999/xlink" x="0px" y="0px"
	 width="866px" height="538.84px" viewBox="0 0 866 538.84" enable-background="new 0 0 866 538.84" xml:space="preserve">
<g>
	<path fill="#FFFFFF" d="M432.642,2.27c-166.316,0-301.141,134.824-301.141,301.138c0,29.014,4.115,57.064,11.772,83.611h239.183
		h6.641c2.31,0,4.183-1.871,4.183-4.182c0-1.721-1.043-3.197-2.53-3.838l0.004-0.006l0.043-0.01
		c-44.059-16.854-75.36-59.502-75.36-109.486c0-64.73,52.474-117.206,117.206-117.206c64.73,0,117.208,52.476,117.208,117.206
		c0,49.98-31.301,92.626-75.355,109.482l0.061,0.014V379c-1.487,0.641-2.528,2.117-2.528,3.838c0,2.311,1.872,4.182,4.183,4.182
		h6.642h239.156c7.657-26.547,11.773-54.598,11.773-83.611C733.78,137.094,598.955,2.27,432.642,2.27"/>
	<path fill="#FFFFFF" d="M174.955,437.439h30.74v59.398c0,5.893-0.919,11.451-2.755,16.686c-1.837,5.232-4.715,9.811-8.637,13.73
		c-3.924,3.918-8.037,6.67-12.344,8.256c-5.984,2.219-13.171,3.33-21.56,3.33c-4.849,0-10.144-0.342-15.88-1.021
		s-10.529-2.025-14.382-4.041c-3.855-2.016-7.379-4.883-10.577-8.598c-3.196-3.715-5.383-7.545-6.562-11.486
		c-1.905-6.342-2.857-11.963-2.857-16.855v-59.398h30.74v60.813c0,5.438,1.507,9.686,4.524,12.742
		c3.015,3.059,7.194,4.586,12.545,4.586c5.305,0,9.465-1.506,12.48-4.52c3.014-3.01,4.522-7.281,4.522-12.809V437.439z"/>
	<polygon fill="#FFFFFF" points="223.317,437.439 252.085,437.439 289.626,492.6 289.626,437.439 318.666,437.439 318.666,537.139 
		289.626,537.139 252.288,482.396 252.288,537.139 223.317,537.139 	"/>
	<polygon fill="#FFFFFF" points="425.606,437.439 454.867,437.439 465.403,493.254 480.821,437.439 509.979,437.439 
		525.436,493.178 535.982,437.439 565.092,437.439 543.113,537.139 512.902,537.139 495.417,474.367 477.997,537.139 
		447.787,537.139 	"/>
	<polygon fill="#FFFFFF" points="577.34,437.439 661.431,437.439 661.431,458.725 608.215,458.725 608.215,474.57 655.966,474.57 
		655.966,494.906 608.215,494.906 608.215,514.561 661.396,514.561 661.396,537.139 577.34,537.139 	"/>
	<polygon fill="#FFFFFF" points="766.967,437.439 860.615,437.439 860.615,462.059 829.193,462.059 829.193,537.139 
		798.386,537.139 798.386,462.059 766.967,462.059 	"/>
	<polygon fill="#FFFFFF" points="672.889,437.439 756.978,437.439 756.978,458.725 703.767,458.725 703.767,474.57 751.514,474.57 
		751.514,494.906 703.767,494.906 703.767,514.561 756.948,514.561 756.948,537.139 672.889,537.139 	"/>
	<path fill="#FFFFFF" d="M91.141,489.941c-2.652-4.396-6.893-8.082-12.718-11.051c-5.826-2.971-15.471-5.906-28.937-8.809
		c-5.442-1.133-8.887-2.357-10.337-3.672c-1.498-1.27-2.245-2.697-2.245-4.285c0-2.174,0.905-4.023,2.72-5.543
		c1.813-1.518,4.511-2.277,8.094-2.277c4.351,0,7.763,1.021,10.235,3.061c2.134,1.766,3.632,4.447,4.499,8.041h29.394
		c-1.277-10.311-5.251-17.83-11.927-22.561c-6.687-4.738-16.401-7.107-29.141-7.107c-10.383,0-18.557,1.305-24.518,3.91
		c-5.96,2.609-10.429,6.191-13.396,10.746c-2.971,4.557-4.454,9.398-4.454,14.52c0,7.801,2.899,14.213,8.706,19.248
		c5.756,5.031,15.39,9.066,28.902,12.104c8.25,1.814,13.51,3.74,15.778,5.781c2.266,2.041,3.399,4.354,3.399,6.938
		c0,2.719-1.19,5.113-3.57,7.174c-2.38,2.064-5.771,3.096-10.167,3.096c-5.894,0-10.428-2.02-13.602-6.055
		c-1.701-2.174-2.903-5.215-3.602-9.121H5.89l-1.224,0.076c0.863,10.066,4.558,18.363,11.086,24.891
		c6.528,6.529,18.272,9.795,35.228,9.795c9.66,0,17.66-1.395,24.009-4.184c6.345-2.787,11.291-6.881,14.826-12.275
		c3.535-5.393,5.303-11.291,5.303-17.682C95.119,499.26,93.793,494.34,91.141,489.941"/>
	<path fill="#FFFFFF" d="M417.784,489.941c-2.653-4.396-6.893-8.082-12.719-11.051c-5.827-2.971-15.472-5.906-28.936-8.809
		c-5.441-1.133-8.89-2.357-10.338-3.672c-1.497-1.27-2.244-2.697-2.244-4.285c0-2.174,0.906-4.023,2.72-5.543
		c1.813-1.518,4.51-2.277,8.093-2.277c4.353,0,7.764,1.021,10.234,3.061c2.135,1.766,3.635,4.447,4.501,8.041h29.394
		c-1.276-10.311-5.251-17.83-11.928-22.561c-6.686-4.738-16.401-7.107-29.141-7.107c-10.383,0-18.556,1.305-24.518,3.91
		c-5.963,2.609-10.429,6.191-13.399,10.746c-2.968,4.557-4.454,9.398-4.454,14.52c0,7.801,2.902,14.213,8.707,19.248
		c5.758,5.031,15.392,9.066,28.904,12.104c8.25,1.814,13.51,3.74,15.777,5.781c2.267,2.041,3.4,4.354,3.4,6.938
		c0,2.719-1.19,5.113-3.572,7.174c-2.381,2.064-5.771,3.096-10.166,3.096c-5.894,0-10.43-2.02-13.603-6.055
		c-1.7-2.174-2.899-5.215-3.601-9.121h-28.366l-1.222,0.076c0.862,10.066,4.56,18.363,11.088,24.891
		c6.528,6.529,18.271,9.795,35.229,9.795c9.654,0,17.656-1.395,24.007-4.184c6.347-2.787,11.288-6.881,14.825-12.275
		c3.536-5.393,5.304-11.291,5.304-17.682C421.762,499.26,420.435,494.34,417.784,489.941"/>
</g>
</svg>
