<?xml version="1.0" encoding="utf-8"?>
<!-- Generator: Adobe Illustrator 25.3.1, SVG Export Plug-In . SVG Version: 6.00 Build 0)  -->
<svg version="1.1" id="Layer_1" xmlns="http://www.w3.org/2000/svg" xmlns:xlink="http://www.w3.org/1999/xlink" x="0px" y="0px"
	 viewBox="0 0 200 200" style="enable-background:new 0 0 200 200;" xml:space="preserve">
<style type="text/css">
	.st0{fill:url(#SVGID_1_);}
	.st1{fill:#FFFFFF;}
</style>
<linearGradient id="SVGID_1_" gradientUnits="userSpaceOnUse" x1="100" y1="200" x2="100" y2="-9.094947e-13">
	<stop  offset="0" style="stop-color:#E32F00"/>
	<stop  offset="1" style="stop-color:#FF4C00"/>
</linearGradient>
<path class="st0" d="M185,200H15c-8.3,0-15-6.7-15-15V15C0,6.7,6.7,0,15,0h170c8.3,0,15,6.7,15,15v170C200,193.3,193.3,200,185,200z
	"/>
<path class="st1" d="M100.2,146c-12.8,0-25.4-0.4-38.4,0c-12.8,0.4-17.3-5.6-18.1-16.9c-1.9-22-3.4-44.2-4.7-66.4
	c-0.4-3.2-0.6-6.8-0.9-10c-0.6-4.7,1.5-7.3,6.4-7.3c8.5,0,16.9,0,25.4,0c2.6,0,3.6-0.9,3.6-3.6c0.6-9,2.6-18.1,8.3-25.4
	c9-12.8,26.7-12.8,36,0c5.6,7.5,8.3,16.4,8.8,25.8c0.4,3,1.1,3.6,3.8,3.6c8.3,0,16.8,0,25.2,0c4.9,0,6.8,1.7,6.4,6.8
	c-0.9,14.7-2.1,29-3,43.7c-0.9,10.2-1.5,20.7-2.3,31.1c-0.4,3.6-0.9,7-1.7,10.5c-2.1,6.2-7,9-13.6,9C127.7,146.4,114,146,100.2,146z
	 M100.2,45.3c5.8,0,12,0,17.9,0c1.5,0,2.6,0,2.6-2.1c-0.9-7.5-2.3-14.9-6.4-21.5c-7.3-11.7-21.1-11.7-28,0
	c-4.1,6.4-5.6,13.7-6.2,21.1c-0.4,1.7,0.6,2.6,2.6,2.6C88.2,45.3,94,45.3,100.2,45.3z M103.6,128c1.7-0.6,5.6-0.9,9-2.3
	c11.7-4.9,13.7-20.7,3.2-28c-3.6-2.6-7.9-4.1-11.7-5.8c-3.6-1.7-7.5-3-11.1-4.7c-4.1-2.1-6.8-5.6-5.8-10.5c0.9-4.9,4.3-7.5,9-9
	c6.2-1.7,11.7,0.6,17.3,3c1.7,0.9,3.6,1.7,4.7-0.4s-0.6-3.2-2.1-4.1c-6.4-3.8-13.2-4.9-20.5-3.6c-7.3,1.3-13.2,7.3-14.1,14.1
	c-1.1,7,2.6,12,8.5,15.2c3,1.7,6.2,2.6,9,4.1c3.6,1.5,7.3,2.6,10.5,4.7c2.6,1.7,5.3,4.1,6.4,7c2.6,6.2-1.5,12.2-9,14.3
	c-8.3,2.1-15.8,0-22.8-4.7c-1.7-0.9-3.2-2.1-4.7,0c-1.1,1.7,0.4,3.2,1.7,4.1C87.6,125.5,94.6,127.6,103.6,128z"/>
<g>
	<path class="st1" d="M106,180.7c0,3.3,0,6.2,0,9.2c0,0.7,0,1.7,0,2.2c0,0.9-0.6,1.3-1.5,1.3s-1.5-0.4-1.7-1.5c0-0.2,0-0.2,0-0.4
		c0-8.6,0-17.1,0-25.7c0-0.6,0.4-1.3,0.7-1.7c0.4-0.2,1.3-0.2,1.7,0.2c0.4,0.4,0.6,1.3,0.7,2c0.4-0.2,0.7-0.6,1.3-0.7
		c4.2-2.9,10.1-2,13.2,2c3.1,3.9,2.8,9.7-1.1,13c-3.1,2.9-8.6,3.3-12.3,0.9C107.1,181.6,106.8,181.1,106,180.7z M106.4,173.7
		c0,3.7,2.9,6.6,6.6,6.6s6.8-2.9,6.8-6.4s-3.1-6.6-6.8-6.6S106.4,170.2,106.4,173.7z"/>
	<path class="st1" d="M45.4,183.1c-3.7,0-7.2-1.5-10.1-3.7c-0.7-0.6-1.3-1.3-0.6-2.4c0.7-0.9,1.5-0.7,2.4-0.2
		c2.2,1.7,4.6,2.8,7.2,3.1c2,0.2,3.9,0,5.7-1.3c2.8-1.7,3.3-5.3,0.7-7.4c-1.7-1.3-3.7-2.2-5.7-3.3c-1.7-0.7-3.7-1.3-5.1-2.2
		c-2.9-1.7-4.2-4.2-3.7-7.5c0.6-3.3,2.8-5.7,6.1-6.4c3.5-0.7,6.8-0.2,9.9,1.5c0.4,0.2,1.1,0.7,1.3,1.3s0,1.5-0.4,1.7
		c-0.4,0.4-1.3,0.4-1.8,0c-2.2-1.3-4.2-1.7-6.8-1.7c-2.8,0.2-4.4,1.5-5,3.9c-0.4,1.5,0,2.9,1.3,3.7c1.5,1.1,3.1,1.7,4.8,2.6
		c1.7,0.7,3.7,1.3,5.3,2.2c3.9,2.2,5.5,5.9,4.6,9.7c-0.9,3.7-4.6,6.2-8.8,6.2C45.9,183.1,45.8,183.1,45.4,183.1z"/>
	<path class="st1" d="M61.6,165.7c1.7-0.7,3.3-1.3,5-1.7c5.1-1.1,9.6,2.6,9.7,7.7c0,3.3,0,6.2,0,9.6c0,1.1-0.2,2-1.7,2
		c-1.3,0-1.7-0.7-1.7-2c0-2.9,0-6.1,0-9.2c0-2-0.6-3.7-2.6-4.6c-2.2-0.9-4.2-0.9-6.2,0.7c-1.7,1.3-2.8,3.3-2.8,5.5
		c0,2.6,0,5.1,0,7.7c0,1.1-0.4,1.8-1.7,1.8s-1.5-0.7-1.5-1.8c0-9.2,0-18.6,0-27.7c0-1.1,0.2-2,1.7-1.8c1.3,0,1.7,0.9,1.5,2
		c0,3.5,0,7,0,10.5C61.6,164.7,61.6,165.3,61.6,165.7z"/>
	<path class="st1" d="M151.4,174.7c-0.2,2.9,1.7,5.1,4.6,5.5c2.2,0.2,4.2,0.2,6.2-0.7c0.9-0.6,2-0.7,2.6,0.4
		c0.6,1.3-0.2,1.8-1.3,2.4c-3.3,1.5-6.6,1.8-9.9,0.7c-3.7-1.3-5.7-5-5.7-9.6c0.2-6.8,5.9-10.8,12.3-8.6c3.3,1.3,5.7,4.8,5.3,8.3
		c-0.2,1.3-0.7,1.7-1.8,1.7c-3.7,0-7.2,0-10.8,0C152.5,174.7,152,174.7,151.4,174.7z M162.3,171.5c-0.2-2.8-2.2-4.2-5.1-4.2
		c-2.8,0-5,1.7-5.3,4.2C155.3,171.5,158.8,171.5,162.3,171.5z"/>
	<path class="st1" d="M136.7,174.7c-1.8,0-3.7,0-5.7,0c-1.3,0-1.3,0.4-1.1,1.5c0.7,2.6,2.4,3.9,5,4.2c2.2,0.2,4.2,0,6.1-0.9
		c0.9-0.6,1.8-0.4,2.4,0.7c0.4,0.7,0,1.7-0.7,2c-3.7,1.8-7.5,2.2-11.2,0.6c-3.3-1.5-5.3-5.9-4.8-9.7c0.2-1.1,0.4-2.2,0.7-3.3
		c1.5-4,5.3-6.2,9.7-5.5s7.2,3.7,7.2,8.3c0,1.8-0.4,2.2-2.2,2.2C140.4,174.7,138.4,174.7,136.7,174.7z M140.8,171.5
		c0-2.6-2.2-4.2-5-4.2c-2.9,0-5.1,1.7-5.3,4.2C134,171.5,137.5,171.5,140.8,171.5z"/>
	<path class="st1" d="M89.5,183.3c-5.7,0-9.7-4.2-9.7-9.7c0-5.1,4.4-9.6,9.9-9.6c5.3,0,10.1,4.6,9.9,9.7
		C99.4,179.2,95.2,183.3,89.5,183.3z M96.3,173.7c0-3.5-2.9-6.6-6.6-6.8c-3.7,0-6.8,2.9-7,6.4c0,3.5,2.9,6.6,6.6,6.8
		C93,180.2,96.3,177.4,96.3,173.7z"/>
</g>
</svg>
